<svg width="27" height="30" viewBox="0 0 27 30" fill="none" xmlns="http://www.w3.org/2000/svg">
<path fill-rule="evenodd" clip-rule="evenodd" d="M17.2049 0.259484C17.6317 0.497403 17.8411 0.995691 17.7126 1.46707L14.8911 11.8125H25.1875C25.6106 11.8125 25.9934 12.0635 26.162 12.4515C26.3306 12.8396 26.2529 13.2907 25.9643 13.6L11.0893 29.5375C10.7559 29.8947 10.2219 29.9784 9.79514 29.7405C9.36839 29.5026 9.1589 29.0043 9.28746 28.5329L12.1089 18.1875H1.81252C1.38944 18.1875 1.00667 17.9365 0.838054 17.5485C0.669435 17.1604 0.747099 16.7093 1.03578 16.4L15.9108 0.462542C16.2442 0.105354 16.7782 0.0215657 17.2049 0.259484Z" fill="#262626"/>
</svg>
